<?xml version="1.0" standalone="no"?>
<!DOCTYPE svg PUBLIC "-//W3C//DTD SVG 20010904//EN"
 "http://www.w3.org/TR/2001/REC-SVG-20010904/DTD/svg10.dtd">
<svg version="1.0" xmlns="http://www.w3.org/2000/svg"
 width="145.000000pt" height="145.000000pt" viewBox="0 0 145.000000 145.000000"
 preserveAspectRatio="xMidYMid meet">
<metadata>
Created by potrace 1.14, written by Peter Selinger 2001-2017
</metadata>
<g transform="translate(0.000000,145.000000) scale(0.100000,-0.100000)"
fill="#000000" stroke="none">
<path d="M295 1436 c-140 -45 -238 -144 -281 -285 -11 -37 -13 -125 -11 -447
l2 -400 38 -77 c54 -109 143 -181 262 -214 39 -10 140 -12 445 -10 l395 2 65
31 c95 46 153 101 197 192 l38 76 2 400 c3 427 2 440 -47 537 -33 64 -112 137
-188 172 l-67 32 -405 2 c-306 1 -415 -1 -445 -11z"/>
</g>
</svg>
